<?xml version="1.0" standalone="no"?>
<!DOCTYPE svg PUBLIC "-//W3C//DTD SVG 20010904//EN"
 "http://www.w3.org/TR/2001/REC-SVG-20010904/DTD/svg10.dtd">
<svg version="1.0" xmlns="http://www.w3.org/2000/svg"
 width="399.000000pt" height="342.000000pt" viewBox="0 0 399.000000 342.000000"
 preserveAspectRatio="xMidYMid meet">

<g transform="translate(0.000000,342.000000) scale(0.100000,-0.100000)"
fill="#03045E" stroke="none">
<path d="M1755 3349 c-802 -143 -1340 -901 -1210 -1703 76 -470 375 -876 800
-1085 136 -68 234 -102 379 -133 146 -32 426 -32 572 0 309 67 549 196 764
411 362 362 508 853 405 1356 -96 464 -441 879 -880 1060 -264 109 -558 142
-830 94z m100 -523 c39 -17 65 -60 65 -108 0 -18 -18 -160 -40 -315 -28 -201
-45 -294 -59 -322 -53 -103 -214 -121 -271 -29 -26 40 -25 44 25 403 41 297
51 325 125 363 51 25 106 28 155 8z m365 -1 c61 -32 72 -84 50 -238 -19 -127
-12 -117 -86 -117 l-65 0 6 33 c10 61 25 172 25 195 0 34 -37 30 -44 -5 -12
-56 -76 -519 -76 -550 0 -22 5 -33 14 -33 23 0 27 13 45 138 l17 117 67 3 67
3 -5 -28 c-3 -15 -12 -72 -20 -126 -7 -54 -22 -115 -33 -135 -61 -119 -249
-122 -281 -4 -7 24 -7 59 -1 102 5 36 23 166 40 290 17 124 35 239 41 256 11
35 62 88 99 103 38 15 107 13 140 -4z m-723 -52 c-3 -32 -22 -173 -42 -313
-20 -140 -39 -274 -42 -297 l-6 -43 48 0 48 0 -7 -52 c-4 -28 -9 -55 -12 -60
-7 -11 -224 -10 -224 2 0 5 9 71 20 147 10 76 33 239 50 363 17 124 33 244 36
268 l6 42 66 0 65 0 -6 -57z m949 35 c-3 -13 -10 -54 -16 -93 -6 -38 -16 -95
-23 -125 -13 -53 -14 -55 -50 -58 -43 -4 -41 -15 -27 148 14 155 12 150 71
150 46 0 49 -2 45 -22z m340 -25 c-6 -52 -17 -191 -51 -623 -3 -36 -8 -87 -11
-113 l-6 -48 -62 3 c-33 2 -60 8 -59 13 0 6 4 61 8 123 l8 112 -36 0 c-40 0
-37 6 -70 -175 l-12 -70 -69 -3 c-67 -3 -68 -2 -63 20 3 13 40 196 83 408 42
212 78 388 81 393 2 4 63 7 135 7 l130 0 -6 -47z m-1067 -913 c73 -37 82 -89
53 -295 l-17 -120 -78 -3 c-90 -3 -84 -16 -62 133 20 142 20 165 -5 165 -12 0
-24 -9 -29 -22 -13 -36 -102 -688 -96 -698 10 -16 43 -11 49 8 3 9 12 64 21
122 8 58 18 120 21 138 l5 32 74 0 75 0 0 -27 c-1 -82 -39 -284 -61 -324 -65
-118 -257 -145 -319 -45 -31 49 -29 86 16 421 49 363 61 418 101 466 56 66
174 89 252 49z m507 -7 c-2 -10 -7 -58 -11 -108 -3 -49 -15 -193 -25 -320 -11
-126 -25 -301 -32 -387 l-12 -158 -78 0 c-76 0 -78 1 -74 23 3 12 8 60 11 107
3 47 8 104 11 128 l6 42 -46 0 c-39 0 -46 -3 -51 -22 -2 -13 -15 -79 -28 -148
l-23 -125 -77 -3 c-69 -3 -77 -1 -77 15 0 10 43 232 95 493 52 261 95 476 95
477 0 2 72 3 161 3 148 0 160 -1 155 -17z m363 -1 c62 -31 76 -61 76 -165 0
-123 -20 -200 -62 -244 -33 -35 -33 -35 -14 -59 32 -41 32 -106 3 -309 l-28
-190 -77 -3 c-42 -2 -77 1 -77 5 0 4 12 95 26 202 20 147 23 199 15 217 -11
25 -51 34 -51 12 0 -19 -49 -378 -56 -410 -5 -28 -7 -28 -80 -28 -88 0 -83
-16 -54 187 10 76 33 239 50 363 52 384 59 423 72 432 7 4 60 8 118 8 80 0
113 -4 139 -18z"/>
<path d="M1741 2683 c-15 -62 -79 -547 -74 -560 7 -18 30 -16 37 3 11 29 86
575 81 585 -13 21 -35 7 -44 -28z"/>
<path d="M2625 2708 c-2 -7 -11 -55 -20 -106 -9 -50 -22 -124 -29 -162 l-14
-70 33 0 32 0 12 148 c7 81 15 159 17 175 4 20 2 27 -11 27 -8 0 -17 -6 -20
-12z"/>
<path d="M2024 1703 c-3 -21 -19 -105 -35 -188 -37 -191 -37 -185 6 -185 42 0
40 -6 55 185 6 77 13 159 16 183 5 37 3 42 -15 42 -15 0 -22 -9 -27 -37z"/>
<path d="M2456 1713 c-12 -62 -29 -223 -24 -228 12 -12 38 9 48 39 18 55 30
149 24 184 -8 41 -40 45 -48 5z"/>
</g>
</svg>
